# xmcd
#
# Track frame offsets:
#        150
#        26772
#        64750
#        81625
#        98167
#        191537
#        212200
#
# Disc length: 3024 seconds
#
# Revision: 0
# Processed by: cddbd v1.5.1PL2 Copyright (c) Steve Scherf et al.
# Submitted via: ExactAudioCopy v0.95b4
#
DISCID=620bce07
DTITLE=JIMI HENDRIX - STONE FREE(DISK 2)
DYEAR=1969
DGENRE=ROCK
TTITLE0=SUNSHINE OF YOUR LOVE
TTITLE1=SLOW BLUES IN C SHARP
TTITLE2=FIRE
TTITLE3=LITTLE WING
TTITLE4=VODOO CHILE - JAM
TTITLE5=PURPLE HAZE - WILD THING
TTITLE6=STAR SPANGLED BANNER (TRADITIONAL)
EXTD=
EXTT0=
EXTT1=
EXTT2=
EXTT3=
EXTT4=
EXTT5=
EXTT6=
PLAYORDER=
